<svg width="48" height="48" viewBox="0 0 48 48" fill="none" xmlns="http://www.w3.org/2000/svg">
  <circle cx="24" cy="24" r="24" fill="#0A66C2"/>
  <path d="M16.375 18.875C17.5 18.875 18.375 18 18.375 16.875C18.375 15.75 17.5 14.875 16.375 14.875C15.25 14.875 14.375 15.75 14.375 16.875C14.375 18 15.25 18.875 16.375 18.875Z" fill="white"/>
  <path d="M14.75 21H18V33.125H14.75V21Z" fill="white"/>
  <path d="M20.875 21H24V22.5C24.5 21.625 25.75 20.75 27.625 20.75C31.125 20.75 33.25 22.875 33.25 26.875V33.125H30V27.375C30 25.75 29.375 24.875 28.125 24.875C26.75 24.875 25.875 25.875 25.875 27.375V33.125H22.625V21H20.875Z" fill="white"/>
</svg>